# WaveFront *.obj file (generated by Autodesk ATF)

mtllib headGuard.mtl

g Body1

v 0.000000 84.999999 -50.000001
v 0.000000 84.999999 -70.000001
v 90.000000 84.999999 -70.000001
v 90.000000 84.999999 -50.000001
v 0.000000 92.764570 -21.022226
v 90.000000 92.764570 -21.022226
v 0.000000 92.764570 78.977774
v 90.000000 92.764570 78.977774
v 0.000000 84.999999 107.955549
v 90.000000 84.999999 107.955549
v 0.000000 56.715727 136.239820
v 90.000000 56.715727 136.239820
v 0.000000 29.526494 148.918368
v 90.000000 29.526494 148.918368
v 0.000000 -2.500001 149.999999
v 90.000000 -2.500001 149.999999
v 0.000000 -34.526496 148.918369
v 90.000000 -34.526496 148.918369
v 0.000000 -61.715730 136.239821
v 90.000000 -61.715730 136.239821
v 0.000000 -90.000001 107.955550
v 90.000000 -90.000001 107.955550
v 0.000000 -97.764573 78.977775
v 90.000000 -97.764573 78.977775
v 0.000000 -97.764573 -21.022225
v 90.000000 -97.764573 -21.022225
v 0.000000 -90.000001 -50.000000
v 90.000000 -90.000001 -50.000000
v 0.000000 -90.000001 -70.000001
v 90.000000 -90.000001 -70.000001
v 0.000000 -115.000002 -70.000001
v 90.000000 -115.000002 -70.000001
v 0.000000 -115.000002 170.000000
v 90.000000 -115.000002 170.000000
v 0.000000 110.000000 170.000000
v 90.000000 110.000000 170.000000
v 0.000000 110.000000 -70.000001
v 90.000000 110.000000 -70.000001
vt -0.000000 0.000000 0.000000
vt 2.000000 0.000000 0.000000
vt -0.000000 9.000000 0.000000
vt 2.000000 9.000000 0.000000
vt -0.000000 0.000000 0.000000
vt 3.000000 0.000000 0.000000
vt -0.000000 9.000000 0.000000
vt 3.000000 9.000000 0.000000
vt -0.000000 0.000000 0.000000
vt 10.000000 0.000000 0.000000
vt 0.000000 9.000000 0.000000
vt 10.000000 9.000000 0.000000
vt 0.000000 0.000000 0.000000
vt 3.000000 0.000000 0.000000
vt 0.000000 9.000000 0.000000
vt 3.000000 9.000000 0.000000
vt 0.000000 0.000000 0.000000
vt 4.000000 0.000000 0.000000
vt 0.000000 9.000000 0.000000
vt 4.000000 9.000000 0.000000
vt 0.000000 0.000000 0.000000
vt 3.000000 0.000000 0.000000
vt 0.000000 9.000000 0.000000
vt 3.000000 9.000000 0.000000
vt 0.000000 0.000000 0.000000
vt 3.204475 0.000000 0.000000
vt 0.000000 9.000000 0.000000
vt 3.204475 9.000000 0.000000
vt 0.000000 0.000000 0.000000
vt 3.204475 0.000000 0.000000
vt 0.000000 9.000000 0.000000
vt 3.204475 9.000000 0.000000
vt 0.000000 0.000000 0.000000
vt 3.000000 0.000000 0.000000
vt 0.000000 9.000000 0.000000
vt 3.000000 9.000000 0.000000
vt 0.000000 0.000000 0.000000
vt 4.000000 0.000000 0.000000
vt 0.000000 9.000000 0.000000
vt 4.000000 9.000000 0.000000
vt 0.000000 0.000000 0.000000
vt 3.000000 0.000000 0.000000
vt 0.000000 9.000000 0.000000
vt 3.000000 9.000000 0.000000
vt 0.000000 0.000000 0.000000
vt 10.000000 0.000000 0.000000
vt 0.000000 9.000000 0.000000
vt 10.000000 9.000000 0.000000
vt 0.000000 0.000000 0.000000
vt 3.000000 0.000000 0.000000
vt 0.000000 9.000000 0.000000
vt 3.000000 9.000000 0.000000
vt 0.000000 0.000000 0.000000
vt 2.000000 0.000000 0.000000
vt 0.000000 9.000000 0.000000
vt 2.000000 9.000000 0.000000
vt 0.000000 0.000000 0.000000
vt 2.500000 0.000000 0.000000
vt 0.000000 9.000000 0.000000
vt 2.500000 9.000000 0.000000
vt 0.000000 0.000000 0.000000
vt 24.000000 0.000000 0.000000
vt 0.000000 9.000000 0.000000
vt 24.000000 9.000000 0.000000
vt 0.000000 0.000000 0.000000
vt 22.500000 0.000000 0.000000
vt 0.000000 9.000000 0.000000
vt 22.500000 9.000000 0.000000
vt 0.000000 0.000000 0.000000
vt 24.000000 0.000000 0.000000
vt 0.000000 9.000000 0.000000
vt 24.000000 9.000000 0.000000
vt 0.000000 0.000000 0.000000
vt 2.500000 0.000000 0.000000
vt 0.000000 9.000000 0.000000
vt 2.500000 9.000000 0.000000
vt 12.000000 8.750000 0.000000
vt 12.000000 11.250000 0.000000
vt 10.000000 8.750000 0.000000
vt 7.102223 9.526457 0.000000
vt -2.897777 9.526457 0.000000
vt -12.000000 11.250000 0.000000
vt -5.795555 8.750000 0.000000
vt -8.623982 5.921573 0.000000
vt -9.891837 3.202649 0.000000
vt -10.000000 -0.000000 0.000000
vt -12.000000 -11.250000 0.000000
vt -9.891837 -3.202650 0.000000
vt -8.623982 -5.921573 0.000000
vt -5.795555 -8.750000 0.000000
vt -2.897778 -9.526457 0.000000
vt 12.000000 -11.250000 0.000000
vt 7.102222 -9.526457 0.000000
vt 10.000000 -8.750000 0.000000
vt 12.000000 -8.750000 0.000000
vt -8.750000 -12.000000 0.000000
vt -8.750000 -10.000000 0.000000
vt -11.250000 -12.000000 0.000000
vt -9.526457 -7.102223 0.000000
vt -9.526457 2.897777 0.000000
vt -11.250000 12.000000 0.000000
vt -8.750000 5.795555 0.000000
vt -5.921573 8.623982 0.000000
vt -3.202649 9.891837 0.000000
vt 0.000000 10.000000 0.000000
vt 11.250000 12.000000 0.000000
vt 3.202650 9.891837 0.000000
vt 5.921573 8.623982 0.000000
vt 8.750000 5.795555 0.000000
vt 9.526457 2.897778 0.000000
vt 11.250000 -12.000000 0.000000
vt 9.526457 -7.102222 0.000000
vt 8.750000 -10.000000 0.000000
vt 8.750000 -12.000000 0.000000
vn 0.000000 -0.100000 0.000000
vn 0.000000 -0.100000 0.000000
vn 0.000000 -0.100000 0.000000
vn 0.000000 -0.100000 0.000000
vn 0.000000 -0.096593 0.025882
vn 0.000000 -0.096593 0.025882
vn 0.000000 -0.096593 0.025882
vn 0.000000 -0.096593 0.025882
vn 0.000000 -0.100000 0.000000
vn 0.000000 -0.100000 0.000000
vn 0.000000 -0.100000 0.000000
vn 0.000000 -0.100000 0.000000
vn 0.000000 -0.096593 -0.025882
vn 0.000000 -0.096593 -0.025882
vn 0.000000 -0.096593 -0.025882
vn 0.000000 -0.096593 -0.025882
vn 0.000000 -0.070711 -0.070711
vn 0.000000 -0.070711 -0.070711
vn 0.000000 -0.070711 -0.070711
vn 0.000000 -0.070711 -0.070711
vn 0.000000 -0.042262 -0.090631
vn 0.000000 -0.042262 -0.090631
vn 0.000000 -0.042262 -0.090631
vn 0.000000 -0.042262 -0.090631
vn 0.000000 -0.003375 -0.099943
vn 0.000000 -0.003375 -0.099943
vn 0.000000 -0.003375 -0.099943
vn 0.000000 -0.003375 -0.099943
vn 0.000000 0.003375 -0.099943
vn 0.000000 0.003375 -0.099943
vn 0.000000 0.003375 -0.099943
vn 0.000000 0.003375 -0.099943
vn 0.000000 0.042262 -0.090631
vn 0.000000 0.042262 -0.090631
vn 0.000000 0.042262 -0.090631
vn 0.000000 0.042262 -0.090631
vn 0.000000 0.070711 -0.070711
vn 0.000000 0.070711 -0.070711
vn 0.000000 0.070711 -0.070711
vn 0.000000 0.070711 -0.070711
vn 0.000000 0.096593 -0.025882
vn 0.000000 0.096593 -0.025882
vn 0.000000 0.096593 -0.025882
vn 0.000000 0.096593 -0.025882
vn 0.000000 0.100000 0.000000
vn 0.000000 0.100000 0.000000
vn 0.000000 0.100000 0.000000
vn 0.000000 0.100000 0.000000
vn 0.000000 0.096593 0.025882
vn 0.000000 0.096593 0.025882
vn 0.000000 0.096593 0.025882
vn 0.000000 0.096593 0.025882
vn 0.000000 0.100000 0.000000
vn 0.000000 0.100000 0.000000
vn 0.000000 0.100000 0.000000
vn 0.000000 0.100000 0.000000
vn 0.000000 0.000000 -0.100000
vn 0.000000 0.000000 -0.100000
vn 0.000000 0.000000 -0.100000
vn 0.000000 0.000000 -0.100000
vn 0.000000 -0.100000 0.000000
vn 0.000000 -0.100000 0.000000
vn 0.000000 -0.100000 0.000000
vn 0.000000 -0.100000 0.000000
vn 0.000000 0.000000 0.100000
vn 0.000000 0.000000 0.100000
vn 0.000000 0.000000 0.100000
vn 0.000000 0.000000 0.100000
vn 0.000000 0.100000 0.000000
vn 0.000000 0.100000 0.000000
vn 0.000000 0.100000 0.000000
vn 0.000000 0.100000 0.000000
vn 0.000000 0.000000 -0.100000
vn 0.000000 0.000000 -0.100000
vn 0.000000 0.000000 -0.100000
vn 0.000000 0.000000 -0.100000
vn 0.100000 0.000000 0.000000
vn 0.100000 0.000000 0.000000
vn 0.100000 0.000000 0.000000
vn 0.100000 0.000000 0.000000
vn 0.100000 0.000000 0.000000
vn 0.100000 0.000000 0.000000
vn 0.100000 0.000000 0.000000
vn 0.100000 0.000000 0.000000
vn 0.100000 0.000000 0.000000
vn 0.100000 0.000000 0.000000
vn 0.100000 0.000000 0.000000
vn 0.100000 0.000000 0.000000
vn 0.100000 0.000000 0.000000
vn 0.100000 0.000000 0.000000
vn 0.100000 0.000000 0.000000
vn 0.100000 0.000000 0.000000
vn 0.100000 0.000000 0.000000
vn 0.100000 0.000000 0.000000
vn 0.100000 0.000000 0.000000
vn -0.100000 0.000000 0.000000
vn -0.100000 0.000000 0.000000
vn -0.100000 0.000000 0.000000
vn -0.100000 0.000000 0.000000
vn -0.100000 0.000000 0.000000
vn -0.100000 0.000000 0.000000
vn -0.100000 0.000000 0.000000
vn -0.100000 0.000000 0.000000
vn -0.100000 0.000000 0.000000
vn -0.100000 0.000000 0.000000
vn -0.100000 0.000000 0.000000
vn -0.100000 0.000000 0.000000
vn -0.100000 0.000000 0.000000
vn -0.100000 0.000000 0.000000
vn -0.100000 0.000000 0.000000
vn -0.100000 0.000000 0.000000
vn -0.100000 0.000000 0.000000
vn -0.100000 0.000000 0.000000
vn -0.100000 0.000000 0.000000
usemtl Steel_-_Satin
f 1/1/1 2/2/2 4/3/3
f 4/3/3 2/2/2 3/4/4
f 5/5/5 1/6/6 6/7/7
f 6/7/7 1/6/6 4/8/8
f 7/9/9 5/10/10 8/11/11
f 8/11/11 5/10/10 6/12/12
f 9/13/13 7/14/14 10/15/15
f 10/15/15 7/14/14 8/16/16
f 11/17/17 9/18/18 12/19/19
f 12/19/19 9/18/18 10/20/20
f 13/21/21 11/22/22 14/23/23
f 14/23/23 11/22/22 12/24/24
f 15/25/25 13/26/26 16/27/27
f 16/27/27 13/26/26 14/28/28
f 17/29/29 15/30/30 18/31/31
f 18/31/31 15/30/30 16/32/32
f 19/33/33 17/34/34 20/35/35
f 20/35/35 17/34/34 18/36/36
f 21/37/37 19/38/38 22/39/39
f 22/39/39 19/38/38 20/40/40
f 23/41/41 21/42/42 24/43/43
f 24/43/43 21/42/42 22/44/44
f 25/45/45 23/46/46 26/47/47
f 26/47/47 23/46/46 24/48/48
f 27/49/49 25/50/50 28/51/51
f 28/51/51 25/50/50 26/52/52
f 29/53/53 27/54/54 30/55/55
f 30/55/55 27/54/54 28/56/56
f 31/57/57 29/58/58 32/59/59
f 32/59/59 29/58/58 30/60/60
f 33/61/61 31/62/62 34/63/63
f 34/63/63 31/62/62 32/64/64
f 35/65/65 33/66/66 36/67/67
f 36/67/67 33/66/66 34/68/68
f 37/69/69 35/70/70 38/71/71
f 38/71/71 35/70/70 36/72/72
f 2/73/73 37/74/74 3/75/75
f 3/75/75 37/74/74 38/76/76
f 3/77/77 38/78/78 4/79/79
f 4/79/79 38/78/78 6/80/80
f 6/80/80 38/78/78 8/81/81
f 8/81/81 38/78/78 36/82/82
f 8/81/81 36/82/82 10/83/83
f 10/83/83 36/82/82 12/84/84
f 12/84/84 36/82/82 14/85/85
f 14/85/85 36/82/82 16/86/86
f 16/86/86 36/82/82 34/87/87
f 16/86/86 34/87/87 18/88/88
f 18/88/88 34/87/87 20/89/89
f 20/89/89 34/87/87 22/90/90
f 22/90/90 34/87/87 24/91/91
f 24/91/91 34/87/87 32/92/92
f 24/91/91 32/92/92 26/93/93
f 26/93/93 32/92/92 28/94/94
f 28/94/94 32/92/92 30/95/95
f 2/96/96 1/97/97 37/98/98
f 37/98/98 1/97/97 5/99/99
f 37/98/98 5/99/99 7/100/100
f 37/98/98 7/100/100 35/101/101
f 35/101/101 7/100/100 9/102/102
f 35/101/101 9/102/102 11/103/103
f 11/103/103 13/104/104 35/101/101
f 35/101/101 13/104/104 15/105/105
f 35/101/101 15/105/105 33/106/106
f 33/106/106 15/105/105 17/107/107
f 33/106/106 17/107/107 19/108/108
f 19/108/108 21/109/109 33/106/106
f 33/106/106 21/109/109 23/110/110
f 33/106/106 23/110/110 31/111/111
f 31/111/111 23/110/110 25/112/112
f 31/111/111 25/112/112 27/113/113
f 27/113/113 29/114/114 31/111/111
# 38 vertices
# 114 texture params
# 114 normals
# 72 facets

# 1 groups
