0
SECTION
2
HEADER
9
$INSUNITS
70
4
9
$ACADVER
1
AC1014
9
$HANDSEED
5
FFFF
0
ENDSEC
0
SECTION
2
TABLES
0
TABLE
2
VPORT
5
8
100
AcDbSymbolTable
0
ENDTAB
0
TABLE
2
LTYPE
5
5
100
AcDbSymbolTable
0
LTYPE
5
14
100
AcDbSymbolTableRecord
100
AcDbLinetypeTableRecord
2
BYBLOCK
70
0
0
LTYPE
5
15
100
AcDbSymbolTableRecord
100
AcDbLinetypeTableRecord
2
BYLAYER
70
0
0
ENDTAB
0
TABLE
2
LAYER
5
2
100
AcDbSymbolTable
70
2
0
LAYER
5
50
100
AcDbSymbolTableRecord
100
AcDbLayerTableRecord
2
0
70
0
6
CONTINUOUS
0
ENDTAB
0
TABLE
2
STYLE
5
3
100
AcDbSymbolTable
70
1
0
STYLE
5
11
100
AcDbSymbolTableRecord
100
AcDbTextStyleTableRecord
2
STANDARD
70
0
0
ENDTAB
0
TABLE
2
VIEW
5
6
100
AcDbSymbolTable
70
0
0
ENDTAB
0
TABLE
2
UCS
5
7
100
AcDbSymbolTable
70
0
0
ENDTAB
0
TABLE
2
APPID
5
9
100
AcDbSymbolTable
70
2
0
APPID
5
12
100
AcDbSymbolTableRecord
100
AcDbRegAppTableRecord
2
ACAD
70
0
0
ENDTAB
0
TABLE
2
DIMSTYLE
5
A
100
AcDbSymbolTable
70
1
0
ENDTAB
0
TABLE
2
BLOCK_RECORD
5
1
100
AcDbSymbolTable
70
1
0
BLOCK_RECORD
5
1F
100
AcDbSymbolTableRecord
100
AcDbBlockTableRecord
2
*MODEL_SPACE
0
BLOCK_RECORD
5
1B
100
AcDbSymbolTableRecord
100
AcDbBlockTableRecord
2
*PAPER_SPACE
0
ENDTAB
0
ENDSEC
0
SECTION
2
BLOCKS
0
BLOCK
5
20
100
AcDbEntity
100
AcDbBlockBegin
2
*MODEL_SPACE
0
ENDBLK
5
21
100
AcDbEntity
100
AcDbBlockEnd
0
BLOCK
5
1C
100
AcDbEntity
100
AcDbBlockBegin
2
*PAPER_SPACE
0
ENDBLK
5
1D
100
AcDbEntity
100
AcDbBlockEnd
0
ENDSEC
0
SECTION
2
ENTITIES
0
LWPOLYLINE
5
100
100
AcDbEntity
8
0
100
AcDbPolyline
90
4
70
1
43
0.0
10
-100
20
-197.00000000000003
10
-100
20
197.00000000000003
10
220
20
197.00000000000003
10
220
20
-197.00000000000003
0
LINE
5
101
100
AcDbEntity
8
0
100
AcDbLine
10
184.33305491095837
20
87.052187148472626
30
0
11
184.33305491095837
21
-87.052187148472626
31
0
0
LWPOLYLINE
5
102
100
AcDbEntity
8
0
100
AcDbPolyline
90
4
70
1
43
0.0
10
36.999999806284904
20
159.50000237673521
10
41.999999806506878
20
159.50000237673521
42
-0.999999271289299
10
41.999999806284904
20
154.50000000000003
10
36.999999803929263
20
154.50000000000003
42
-0.99999983710639684
0
LINE
5
103
100
AcDbEntity
8
0
100
AcDbLine
10
91.861427430828826
20
87.052187148472626
30
0
11
85
21
87.052187148472626
31
0
0
LWPOLYLINE
5
104
100
AcDbEntity
8
0
100
AcDbPolyline
90
4
70
1
43
0.0
10
184.4999998062849
20
132.00000000000003
10
184.4999998062849
20
137.00000000000003
42
0.99999999999999989
10
179.4999998062849
20
137.00000000000003
10
179.4999998062849
20
132.00000000000003
42
0.99999999999999989
0
LINE
5
105
100
AcDbEntity
8
0
100
AcDbLine
10
200
20
197
30
0
11
220
21
197
31
0
0
LWPOLYLINE
5
106
100
AcDbEntity
8
0
100
AcDbPolyline
90
4
70
1
43
0.0
10
41.999999806284904
20
-154.50000000000003
10
36.999999806284904
20
-154.50000000000003
42
0.99999983710639684
10
36.999999806284904
20
-159.50000237673521
10
41.999999806284904
20
-159.50000237673521
42
0.999999271289299
0
LINE
5
107
100
AcDbEntity
8
0
100
AcDbLine
10
51.999999806284904
20
-147.00000000000003
30
0
11
51.999999806284904
21
-157.00000000000003
31
0
0
LWPOLYLINE
5
108
100
AcDbEntity
8
0
100
AcDbPolyline
90
4
70
1
43
0.0
10
81.999999806284904
20
-147.00000000000003
10
81.999999806284904
20
-177.00000000000003
10
51.999999806284904
20
-177.00000000000003
10
51.999999806284904
20
-147.00000000000003
0
LWPOLYLINE
5
109
100
AcDbEntity
8
0
100
AcDbPolyline
90
4
70
1
43
0.0
10
184.4999998062849
20
-132.00000000000003
10
184.4999998062849
20
-137.00000000000003
42
-0.99999999999999989
10
179.4999998062849
20
-137.00000000000003
10
179.4999998062849
20
-132.00000000000003
42
-0.99999999999999989
0
LINE
5
110
100
AcDbEntity
8
0
100
AcDbLine
10
85
20
-87.052187148472626
30
0
11
73.323978607598406
21
-98.728208540874363
31
0
0
ARC
5
111
100
AcDbEntity
8
0
100
AcDbCircle
10
108.25803195459116
20
16.252444169038611
30
0
40
109.4711990623515
210
0
220
0
230
1
100
AcDbArc
50
108.60949604035832
51
188.53787705902076
0
LINE
5
112
100
AcDbEntity
8
0
100
AcDbLine
10
200
20
-165
30
0
11
200
21
-147.00000000000003
31
0
0
LINE
5
113
100
AcDbEntity
8
0
100
AcDbLine
10
91.861427430828826
20
-87.052187148472626
30
0
11
85
21
-87.052187148472626
31
0
0
LINE
5
114
100
AcDbEntity
8
0
100
AcDbLine
10
200
20
165
30
0
11
200
21
146.99999999999994
31
0
0
LINE
5
115
100
AcDbEntity
8
0
100
AcDbLine
10
185
20
-197.00000000000003
30
0
11
220
21
-197.00000000000003
31
0
0
ARC
5
116
100
AcDbEntity
8
0
100
AcDbCircle
10
108.25803195459116
20
-16.252444169038611
30
0
40
109.47119906235156
210
0
220
0
230
1
100
AcDbArc
50
171.46212294097927
51
251.39050395964171
0
LWPOLYLINE
5
117
100
AcDbEntity
8
0
100
AcDbPolyline
90
4
70
1
43
0.0
10
170
20
177.00000000000003
10
200
20
177.00000000000003
10
200
20
147.00000000000003
10
170
20
147.00000000000003
0
LWPOLYLINE
5
118
100
AcDbEntity
8
0
100
AcDbPolyline
90
4
70
1
43
0.0
10
170
20
-177.00000000000003
10
200
20
-177.00000000000003
10
200
20
-147.00000000000003
10
170
20
-147.00000000000003
0
LINE
5
119
100
AcDbEntity
8
0
100
AcDbLine
10
51.999999806284904
20
-165
30
0
11
51.999999806284904
21
-147.00000000000003
31
0
0
LINE
5
120
100
AcDbEntity
8
0
100
AcDbLine
10
184.33305491095837
20
-87.052187148472626
30
0
11
91.861427430828826
21
-87.052187148472626
31
0
0
LINE
5
121
100
AcDbEntity
8
0
100
AcDbLine
10
85
20
87.052187148472626
30
0
11
73.323978607598406
21
98.728208540874363
31
0
0
LWPOLYLINE
5
122
100
AcDbEntity
8
0
100
AcDbPolyline
90
4
70
1
43
0.0
10
81.999999806284904
20
177.00000000000003
10
51.999999806284904
20
177.00000000000003
10
51.999999806284904
20
147.00000000000003
10
81.999999806284904
20
147.00000000000003
0
LINE
5
123
100
AcDbEntity
8
0
100
AcDbLine
10
73.323978607598406
20
-98.728208540874363
30
0
11
73.323978607598406
21
-120
31
0
0
LINE
5
124
100
AcDbEntity
8
0
100
AcDbLine
10
184.33305491095837
20
87.052187148472626
30
0
11
91.861427430828826
21
87.052187148472626
31
0
0
LINE
5
125
100
AcDbEntity
8
0
100
AcDbLine
10
185
20
-177.00000000000003
30
0
11
185
21
-197.00000000000003
31
0
0
LINE
5
126
100
AcDbEntity
8
0
100
AcDbLine
10
73.323978607598406
20
98.728208540874363
30
0
11
73.323978607598406
21
120
31
0
0
ENDSEC
0
SECTION
2
OBJECTS
0
DICTIONARY
5
C
100
AcDbDictionary
3
ACAD_GROUP
350
D
3
ACAD_MLINESTYLE
350
17
0
DICTIONARY
5
D
100
AcDbDictionary
0
DICTIONARY
5
1A
330
C
100
AcDbDictionary
0
DICTIONARY
5
17
100
AcDbDictionary
0
ENDSEC
0
EOF
